<svg width="550" shape-rendering="crispEdges" height="254" viewBox="0 0 550 254" fill="none"
    xmlns="http://www.w3.org/2000/svg">
    <path d="M330 104H360V134H330V104Z" fill="#F2F2F2" />
    <path d="M420 74H450V104H420V74Z" fill="#F2F2F2" />
    <path d="M420 104H450V134H420V104Z" fill="#F2F2F2" />
    <path d="M420 134H450V164H420V134Z" fill="#F2F2F2" />
    <path d="M420 164H450V194H420V164Z" fill="#F2F2F2" />
    <path d="M390 74H420V104H390V74Z" fill="#F2F2F2" />
    <path d="M390 104H420V134H390V104Z" fill="#F2F2F2" />
    <path d="M390 134H420V164H390V134Z" fill="#F2F2F2" />
    <path d="M390 164H420V194H390V164Z" fill="#F2F2F2" />
    <path d="M360 164H390V194H360V164Z" fill="#F2F2F2" />
    <path d="M330 164H360V194H330V164Z" fill="#F2F2F2" />
    <path d="M330 134H360V164H330V134Z" fill="#F2F2F2" />
    <path d="M330 74H360V104H330V74Z" fill="#F2F2F2" />
    <path d="M180 74H210V104H180V74Z" fill="#F2F2F2" />
    <path d="M210 74H240V104H210V74Z" fill="#F2F2F2" />
    <path d="M240 134H270V164H240V134Z" fill="#F2F2F2" />
    <path d="M240 104H270V134H240V104Z" fill="#F2F2F2" />
    <path d="M180 164H210V194H180V164Z" fill="#F2F2F2" />
    <path d="M180 134H210V164H180V134Z" fill="#F2F2F2" />
    <path d="M180 104H210V134H180V104Z" fill="#F2F2F2" />
    <path d="M210 164H240V194H210V164Z" fill="#F2F2F2" />
    <path d="M240 194H270V224H240V194Z" fill="#F2F2F2" />
    <path d="M270 194H300V224H270V194Z" fill="#F2F2F2" />
    <path d="M240 164H270V194H240V164Z" fill="#F2F2F2" />
    <path d="M270 164H300V194H270V164Z" fill="#F2F2F2" />
    <path d="M270 134H300V164H270V134Z" fill="#F2F2F2" />
    <path d="M270 104H300V134H270V104Z" fill="#F2F2F2" />
    <path d="M270 74H300V104H270V74Z" fill="#F2F2F2" />
    <path d="M240 74H270V104H240V74Z" fill="#F2F2F2" />
    <path d="M120 74H150V104H120V74Z" fill="#F2F2F2" />
    <path d="M120 74H150V104H120V74Z" fill="#F2F2F2" />
    <path d="M45 96H75V126H45V96Z" fill="#F2F2F2" />
    <path d="M105 135H135V165H105V135Z" fill="#F2F2F2" />
    <path d="M30 115L60 119V149H30V115Z" fill="#F2F2F2" />
    <path d="M120 119H150V149H120V119Z" fill="#F2F2F2" />
    <path d="M90 119H120V149H90V119Z" fill="#F2F2F2" />
    <path d="M60 119H90V149H60V119Z" fill="#F2F2F2" />
    <path d="M120 135H150V165H120V135Z" fill="#F2F2F2" />
    <path d="M120 164H150V194H120V164Z" fill="#F2F2F2" />
    <path d="M90 164H120V194H90V164Z" fill="#F2F2F2" />
    <path d="M60 164H90V194H60V164Z" fill="#F2F2F2" />
    <path d="M30 164H60V194H30V164Z" fill="#F2F2F2" />
    <path d="M30 104H60V126V134H30V104Z" fill="#F2F2F2" />
    <path d="M30 74H60V104H30V74Z" fill="#F2F2F2" />
    <path d="M60 74H90V104H60V74Z" fill="#F2F2F2" />
    <path d="M90 74H120V104H90V74Z" fill="#F2F2F2" />
    <path d="M480 74H510V104H480V74Z" fill="#F2F2F2" />
    <path d="M480 134H510V164H480V134Z" fill="#F2F2F2" />
    <path d="M480 164H510V194H480V164Z" fill="#F2F2F2" />
    <path d="M480 104H510V134H480V104Z" fill="#F2F2F2" />
    <path d="M490 74H520V104H490V74Z" fill="#F2F2F2" />
    <path d="M490 104H520V134H490V104Z" fill="#F2F2F2" />
    <path d="M490 134H520V164H490V134Z" fill="#F2F2F2" />
    <path d="M490 164H520V194H490V164Z" fill="#F2F2F2" />
    <path d="M480 30H510V60H480V30Z" fill="#F2F2F2" />
    <path d="M490 30H520V60H490V30Z" fill="#F2F2F2" />
    <path d="M0 45H30V75H0V45Z" fill="#CB3837" />
    <path d="M60 45H90V75H60V45Z" fill="#CB3837" />
    <path d="M90 194H120V224H90V194Z" fill="#CB3837" />
    <path d="M60 194H90V224H60V194Z" fill="#CB3837" />
    <path d="M30 194H60V224H30V194Z" fill="#CB3837" />
    <path d="M0 194H30V224H0V194Z" fill="#CB3837" />
    <path d="M0 164H30V194H0V164Z" fill="#CB3837" />
    <path d="M0 135H30V165H0V135Z" fill="#CB3837" />
    <path d="M0 105H30V135H0V105Z" fill="#CB3837" />
    <path d="M0 75H30V105H0V75Z" fill="#CB3837" />
    <path d="M150 45H180V75H150V45Z" fill="#CB3837" />
    <path d="M180 45H210V75H180V45Z" fill="#CB3837" />
    <path d="M210 45H240V75H210V45Z" fill="#CB3837" />
    <path d="M240 45H270V75H240V45Z" fill="#CB3837" />
    <path d="M270 45H300V75H270V45Z" fill="#CB3837" />
    <path d="M300 45H330V75H300V45Z" fill="#CB3837" />
    <path d="M330 45H360V75H330V45Z" fill="#CB3837" />
    <path d="M480 0H510V30H480V0Z" fill="#CB3837" />
    <path d="M450 0H480V30H450V0Z" fill="#CB3837" />
    <path d="M450 15H480V45H450V15Z" fill="#CB3837" />
    <path d="M450 45H480V75H450V45Z" fill="#CB3837" />
    <path d="M420 45H450V75H420V45Z" fill="#CB3837" />
    <path d="M390 45H420V75H390V45Z" fill="#CB3837" />
    <path d="M360 45H390V75H360V45Z" fill="#CB3837" />
    <path d="M120 45H150V75H120V45Z" fill="#CB3837" />
    <path d="M90 45H120V75H90V45Z" fill="#CB3837" />
    <path d="M30 45H60V75H30V45Z" fill="#CB3837" />
    <path d="M510 0H540V30H510V0Z" fill="#CB3837" />
    <path d="M520 30H550V60H520V30Z" fill="#CB3837" />
    <path d="M520 0H550V30H520V0Z" fill="#CB3837" />
    <path d="M520 59H550V89H520V59Z" fill="#CB3837" />
    <path d="M520 89H550V119H520V89Z" fill="#CB3837" />
    <path d="M520 119H550V149H520V119Z" fill="#CB3837" />
    <path d="M520 148H550V178H520V148Z" fill="#CB3837" />
    <path d="M520 178H550V208H520V178Z" fill="#CB3837" />
    <path d="M490 194H520V224H490V194Z" fill="#CB3837" />
    <path d="M475 194H505V224H475V194Z" fill="#CB3837" />
    <path d="M520 194H550V224H520V194Z" fill="#CB3837" />
    <path d="M450 75H480V105H450V75Z" fill="#CB3837" />
    <path d="M360 75H390V105H360V75Z" fill="#CB3837" />
    <path d="M360 105H390V135H360V105Z" fill="#CB3837" />
    <path d="M360 135H390V165H360V135Z" fill="#CB3837" />
    <path d="M450 105H480V135H450V105Z" fill="#CB3837" />
    <path d="M450 135H480V165H450V135Z" fill="#CB3837" />
    <path d="M450 165H480V195H450V165Z" fill="#CB3837" />
    <path d="M445 194H475V224H445V194Z" fill="#CB3837" />
    <path d="M415 194H445V224H415V194Z" fill="#CB3837" />
    <path d="M385 194H415V224H385V194Z" fill="#CB3837" />
    <path d="M300 74H330V104H300V74Z" fill="#CB3837" />
    <path d="M300 134H330V164H300V134Z" fill="#CB3837" />
    <path d="M300 164H330V194H300V164Z" fill="#CB3837" />
    <path d="M300 194H330V224H300V194Z" fill="#CB3837" />
    <path d="M300 224H330V254H300V224Z" fill="#CB3837" />
    <path d="M270 224H300V254H270V224Z" fill="#CB3837" />
    <path d="M240 224H270V254H240V224Z" fill="#CB3837" />
    <path d="M210 224H240V254H210V224Z" fill="#CB3837" />
    <path d="M210 194H240V224H210V194Z" fill="#CB3837" />
    <path d="M210 134H240V164H210V134Z" fill="#CB3837" />
    <path d="M210 104H240V134H210V104Z" fill="#CB3837" />
    <path d="M150 75H180V105H150V75Z" fill="#CB3837" />
    <path d="M150 104H180V134H150V104Z" fill="#CB3837" />
    <path d="M150 134H180V164H150V134Z" fill="#CB3837" />
    <path d="M150 164H180V194H150V164Z" fill="#CB3837" />
    <path d="M180 194H210V224H180V194Z" fill="#CB3837" />
    <path d="M150 194H180V224H150V194Z" fill="#CB3837" />
    <path d="M120 194H150V224H120V194Z" fill="#CB3837" />
    <path d="M325 194H355V224H325V194Z" fill="#CB3837" />
    <path d="M355 194H385V224H355V194Z" fill="#CB3837" />
    <path d="M300 104H330V134H300V104Z" fill="#CB3837" />
    <path d="M490 60H520V75H490V60Z" fill="#CB3837" />
    <path d="M480 60H510V75H480V60Z" fill="#CB3837" />
    <path d="M30 149H60V164H30V149Z" fill="#CB3837" />
    <path d="M60 149H90V164H60V149Z" fill="#CB3837" />
    <path d="M75 149H105V164H75V149Z" fill="#CB3837" />
    <path d="M120 104H150V119H120V104Z" fill="#CB3837" />
    <path d="M90 104H120V119H90V104Z" fill="#CB3837" />
    <path d="M75 104H105V119H75V104Z" fill="#CB3837" />
</svg>